<svg width="20" height="23" viewBox="0 0 20 23" fill="none" xmlns="http://www.w3.org/2000/svg">
<g clip-path="url(#clip0_1_20)">
<path d="M9.654 1C8.6656 1.00106 7.71797 1.39417 7.01907 2.09308C6.32016 2.79198 5.92706 3.7396 5.926 4.728V12.055C5.9243 12.5446 6.01902 13.0297 6.2048 13.4826C6.39057 13.9356 6.66374 14.3475 7.0087 14.6949C7.7054 15.3965 8.65227 15.7926 9.641 15.796C10.6297 15.7994 11.5793 15.41 12.2809 14.7133C12.9825 14.0166 13.3785 13.0697 13.382 12.081V4.728C13.3809 3.7396 12.9878 2.79198 12.2889 2.09308C11.59 1.39417 10.6424 1.00106 9.654 1ZM11.829 12.081C11.8139 12.6499 11.5764 13.1902 11.1675 13.586C10.7586 13.9818 10.2108 14.2016 9.64176 14.1982C9.07268 14.1948 8.52761 13.9685 8.12347 13.5678C7.71933 13.1671 7.4883 12.624 7.47999 12.055V4.728C7.47378 4.43852 7.52545 4.15071 7.63193 3.88145C7.73842 3.61219 7.8976 3.36691 8.10014 3.15999C8.30267 2.95306 8.54448 2.78866 8.81139 2.67642C9.0783 2.56418 9.36495 2.50637 9.6545 2.50637C9.94405 2.50637 10.2307 2.56418 10.4976 2.67642C10.7645 2.78866 11.0063 2.95306 11.2089 3.15999C11.4114 3.36691 11.5706 3.61219 11.6771 3.88145C11.7835 4.15071 11.8352 4.43852 11.829 4.728V12.081Z" fill="url(#paint0_linear_1_20)"/>
<path d="M10.43 18.01H8.877V21.505H10.43V18.01Z" fill="url(#paint1_linear_1_20)"/>
<path d="M11.699 20.729H7.608C7.50369 20.7253 7.39969 20.7426 7.30222 20.7799C7.20474 20.8172 7.11579 20.8738 7.04066 20.9463C6.96554 21.0188 6.90578 21.1057 6.86497 21.2018C6.82417 21.2978 6.80313 21.4011 6.80313 21.5055C6.80313 21.6099 6.82417 21.7132 6.86497 21.8093C6.90578 21.9054 6.96554 21.9922 7.04066 22.0647C7.11579 22.1372 7.20474 22.1938 7.30222 22.2311C7.39969 22.2684 7.50369 22.2858 7.608 22.282H11.699C11.8033 22.2858 11.9073 22.2684 12.0048 22.2311C12.1023 22.1938 12.1912 22.1372 12.2664 22.0647C12.3415 21.9922 12.4012 21.9054 12.442 21.8093C12.4828 21.7132 12.5039 21.6099 12.5039 21.5055C12.5039 21.4011 12.4828 21.2978 12.442 21.2018C12.4012 21.1057 12.3415 21.0188 12.2664 20.9463C12.1912 20.8738 12.1023 20.8172 12.0048 20.7799C11.9073 20.7426 11.8033 20.7253 11.699 20.729Z" fill="url(#paint2_linear_1_20)"/>
<path d="M15.531 10.761C15.3249 10.761 15.1273 10.8429 14.9816 10.9886C14.8359 11.1343 14.754 11.3319 14.754 11.538V12.159C14.754 13.5116 14.2167 14.8088 13.2603 15.7652C12.3038 16.7217 11.0066 17.259 9.65401 17.259C8.3014 17.259 7.0042 16.7217 6.04777 15.7652C5.09133 14.8088 4.55401 13.5116 4.55401 12.159V11.539C4.54679 11.3379 4.46182 11.1474 4.31699 11.0077C4.17215 10.868 3.97876 10.7899 3.77751 10.7899C3.57626 10.7899 3.38286 10.868 3.23803 11.0077C3.0932 11.1474 3.00823 11.3379 3.00101 11.539V12.16C3.00101 13.0338 3.17312 13.8991 3.50751 14.7064C3.84191 15.5137 4.33204 16.2472 4.94992 16.8651C5.5678 17.483 6.30133 17.9731 7.10863 18.3075C7.91594 18.6419 8.7812 18.814 9.65501 18.814C10.5288 18.814 11.3941 18.6419 12.2014 18.3075C13.0087 17.9731 13.7422 17.483 14.3601 16.8651C14.978 16.2472 15.4681 15.5137 15.8025 14.7064C16.1369 13.8991 16.309 13.0338 16.309 12.16V11.539C16.3091 11.4368 16.2891 11.3356 16.2501 11.2411C16.211 11.1467 16.1537 11.0608 16.0814 10.9886C16.0092 10.9163 15.9233 10.859 15.8289 10.82C15.7344 10.7809 15.6332 10.7609 15.531 10.761Z" fill="url(#paint3_linear_1_20)"/>
</g>
<rect x="2.25" y="0.33" width="25" height="3" rx="1.5" transform="rotate(45 2.25 0.33)" fill="black"/>
<defs>
<linearGradient id="paint0_linear_1_20" x1="9.65399" y1="1" x2="9.65399" y2="15.796" gradientUnits="userSpaceOnUse">
<stop stop-color="#17B1F2"/>
<stop offset="1" stop-color="#AB81CD"/>
</linearGradient>
<linearGradient id="paint1_linear_1_20" x1="9.6535" y1="18.01" x2="9.6535" y2="21.505" gradientUnits="userSpaceOnUse">
<stop stop-color="#17B1F2"/>
<stop offset="1" stop-color="#AB81CD"/>
</linearGradient>
<linearGradient id="paint2_linear_1_20" x1="9.6535" y1="20.7285" x2="9.6535" y2="22.2825" gradientUnits="userSpaceOnUse">
<stop stop-color="#17B1F2"/>
<stop offset="1" stop-color="#AB81CD"/>
</linearGradient>
<linearGradient id="paint3_linear_1_20" x1="9.65501" y1="10.761" x2="9.65501" y2="18.814" gradientUnits="userSpaceOnUse">
<stop stop-color="#17B1F2"/>
<stop offset="1" stop-color="#AB81CD"/>
</linearGradient>
<clipPath id="clip0_1_20">
<rect width="13.308" height="21.282" fill="white" transform="translate(3 1)"/>
</clipPath>
</defs>
</svg>
